<svg id="svg" version="1.1" xmlns="http://www.w3.org/2000/svg" xmlns:xlink="http://www.w3.org/1999/xlink" width="400" height="400" viewBox="0, 0, 400,400"><g id="svgg"><path id="path0" d="M84.000 27.407 L 84.000 54.814 93.700 54.707 L 103.400 54.600 103.508 45.500 L 103.615 36.400 111.008 36.400 L 118.400 36.400 118.400 45.607 L 118.400 54.814 128.100 54.707 L 137.800 54.600 137.903 27.300 L 138.006 -0.000 128.203 -0.000 L 118.400 0.000 118.400 8.600 L 118.400 17.200 111.000 17.200 L 103.600 17.200 103.600 8.600 L 103.600 0.000 93.800 0.000 L 84.000 0.000 84.000 27.407 M144.800 9.200 L 144.800 18.400 152.600 18.400 L 160.400 18.400 160.400 36.600 L 160.400 54.800 170.000 54.800 L 179.600 54.800 179.600 36.600 L 179.600 18.400 187.400 18.400 L 195.200 18.400 195.200 9.200 L 195.200 0.000 170.000 0.000 L 144.800 0.000 144.800 9.200 M202.097 27.300 L 202.200 54.600 211.494 54.707 L 220.789 54.815 220.894 42.107 L 221.000 29.400 221.979 31.000 C 222.517 31.880,223.078 32.690,223.225 32.800 C 223.372 32.910,223.619 33.405,223.773 33.900 C 223.928 34.395,224.222 34.800,224.427 34.800 C 224.632 34.800,224.800 35.076,224.800 35.413 C 224.800 35.749,225.054 36.122,225.364 36.241 C 225.674 36.361,226.037 36.895,226.172 37.429 C 226.306 37.963,226.592 38.400,226.808 38.400 C 227.023 38.400,227.200 38.670,227.200 39.000 C 227.200 39.330,227.377 39.600,227.592 39.600 C 227.808 39.600,228.098 40.050,228.236 40.600 C 228.374 41.150,228.606 41.600,228.752 41.600 C 228.897 41.600,229.459 42.410,230.000 43.400 C 230.541 44.390,231.101 45.200,231.245 45.200 C 231.389 45.200,231.601 45.559,231.715 45.998 C 232.176 47.759,234.299 47.008,234.987 44.839 C 235.134 44.378,235.402 44.000,235.584 44.000 C 235.765 44.000,236.026 43.550,236.164 43.000 C 236.302 42.450,236.592 42.000,236.808 42.000 C 237.023 42.000,237.200 41.749,237.200 41.443 C 237.200 41.136,237.470 40.782,237.800 40.655 C 238.130 40.529,238.400 40.149,238.400 39.813 C 238.400 39.476,238.568 39.200,238.773 39.200 C 238.978 39.200,239.272 38.803,239.426 38.319 C 239.580 37.834,239.952 37.191,240.253 36.890 C 240.554 36.589,240.800 36.086,240.800 35.771 C 240.800 35.457,240.959 35.200,241.153 35.200 C 241.348 35.200,241.612 34.885,241.742 34.500 C 242.076 33.504,242.915 32.255,243.500 31.880 C 243.775 31.704,244.000 31.299,244.000 30.980 C 244.000 30.661,244.180 30.400,244.400 30.400 C 244.658 30.400,244.800 34.733,244.800 42.600 L 244.800 54.800 254.400 54.800 L 264.000 54.800 264.000 27.400 L 264.000 0.000 253.971 0.000 C 243.093 0.000,243.621 -0.108,242.230 2.407 C 241.807 3.173,241.357 3.890,241.230 4.000 C 241.104 4.110,240.550 5.097,240.000 6.193 C 239.450 7.289,238.775 8.427,238.500 8.721 C 238.225 9.016,238.000 9.514,238.000 9.829 C 238.000 10.143,237.820 10.400,237.600 10.400 C 237.380 10.400,237.200 10.670,237.200 11.000 C 237.200 11.330,237.032 11.600,236.827 11.600 C 236.622 11.600,236.328 11.997,236.174 12.481 C 236.020 12.966,235.693 13.590,235.447 13.867 C 234.335 15.122,234.000 15.588,233.994 15.883 C 233.960 17.637,232.716 17.267,231.698 15.200 C 231.071 13.927,230.337 12.783,229.700 12.088 C 229.425 11.788,229.200 11.286,229.200 10.971 C 229.200 10.657,229.040 10.400,228.843 10.400 C 228.647 10.400,228.374 9.950,228.236 9.400 C 228.098 8.850,227.808 8.400,227.592 8.400 C 227.377 8.400,227.200 8.130,227.200 7.800 C 227.200 7.470,227.020 7.200,226.800 7.200 C 226.580 7.200,226.400 6.943,226.400 6.629 C 226.400 6.314,226.175 5.813,225.900 5.514 C 225.382 4.951,224.536 3.538,223.380 1.300 L 222.709 -0.000 212.352 -0.000 L 201.994 -0.000 202.097 27.300 M271.697 27.300 L 271.800 54.600 294.100 54.703 L 316.400 54.807 316.400 45.003 L 316.400 35.200 303.600 35.200 L 290.800 35.200 290.800 17.600 L 290.800 0.000 281.197 -0.000 L 271.594 -0.000 271.697 27.300 " stroke="none" fill="#040404" fill-rule="evenodd"></path><path id="path1" d="M58.204 84.300 C 58.362 87.765,58.631 90.780,58.802 91.000 C 58.972 91.220,59.242 94.505,59.402 98.300 C 59.561 102.095,59.830 105.200,60.000 105.200 C 60.170 105.200,60.440 108.262,60.600 112.005 C 60.761 115.747,61.051 118.908,61.246 119.028 C 61.441 119.149,61.600 120.827,61.600 122.757 C 61.600 124.687,61.735 126.402,61.900 126.567 C 62.065 126.732,62.246 128.067,62.302 129.533 C 62.528 135.425,62.897 139.821,63.196 140.200 C 63.370 140.420,63.641 143.570,63.800 147.200 C 63.959 150.830,64.226 153.980,64.395 154.200 C 64.563 154.420,64.835 157.300,64.999 160.600 C 65.331 167.264,65.356 167.547,65.695 168.400 C 65.905 168.930,66.321 174.677,66.540 180.075 C 66.582 181.106,66.748 182.081,66.908 182.242 C 67.069 182.402,67.200 184.023,67.200 185.843 C 67.200 187.663,67.359 189.251,67.554 189.372 C 67.749 189.492,68.039 192.653,68.200 196.395 C 68.360 200.138,68.629 203.200,68.797 203.200 C 68.965 203.200,69.234 206.351,69.394 210.203 C 69.555 214.055,69.826 217.293,69.997 217.398 C 70.168 217.504,70.439 220.655,70.600 224.400 C 70.761 228.145,71.051 231.308,71.246 231.428 C 71.441 231.549,71.600 233.137,71.600 234.957 C 71.600 236.777,71.735 238.402,71.900 238.567 C 72.065 238.732,72.240 240.157,72.288 241.734 C 72.455 247.121,72.880 252.200,73.198 252.600 C 73.373 252.820,73.646 256.015,73.806 259.700 C 73.966 263.385,74.235 266.400,74.403 266.400 C 74.571 266.400,74.839 269.505,74.998 273.300 C 75.158 277.095,75.424 280.380,75.589 280.600 C 75.755 280.820,76.026 283.250,76.192 286.000 C 76.357 288.750,76.568 291.720,76.660 292.600 C 76.752 293.480,76.924 295.865,77.042 297.900 C 77.160 299.935,77.403 301.600,77.583 301.600 C 77.762 301.600,78.039 304.705,78.198 308.500 C 78.358 312.295,78.629 315.580,78.800 315.800 C 78.971 316.020,79.243 319.170,79.403 322.800 C 79.564 326.430,79.825 329.490,79.984 329.600 C 80.234 329.773,80.634 334.504,81.437 346.800 C 81.545 348.450,81.755 350.070,81.904 350.400 C 82.054 350.730,82.228 352.350,82.291 354.000 C 82.566 361.107,82.878 364.800,83.206 364.800 C 83.398 364.800,83.611 365.655,83.678 366.700 C 83.799 368.578,83.821 368.606,85.600 369.121 C 86.590 369.407,88.276 369.902,89.346 370.221 C 90.416 370.539,91.796 370.800,92.413 370.800 C 93.029 370.800,93.594 370.983,93.669 371.207 C 93.744 371.431,94.749 371.726,95.902 371.863 C 97.056 372.000,98.000 372.266,98.000 372.456 C 98.000 372.645,98.439 372.800,98.976 372.800 C 99.513 372.800,100.056 372.967,100.183 373.172 C 100.309 373.377,101.400 373.667,102.606 373.818 C 103.813 373.969,104.800 374.238,104.800 374.417 C 104.800 374.596,105.790 374.866,107.000 375.017 C 108.210 375.168,109.200 375.438,109.200 375.617 C 109.200 375.796,110.190 376.066,111.400 376.217 C 112.610 376.368,113.600 376.651,113.600 376.846 C 113.600 377.041,114.129 377.200,114.776 377.200 C 115.423 377.200,116.058 377.370,116.186 377.577 C 116.314 377.784,117.269 378.077,118.309 378.227 C 119.349 378.378,120.380 378.641,120.600 378.813 C 120.820 378.985,121.855 379.252,122.900 379.408 C 123.945 379.564,124.800 379.830,124.800 379.999 C 124.800 380.169,125.787 380.431,126.994 380.582 C 128.200 380.733,129.283 381.011,129.400 381.200 C 129.517 381.389,130.600 381.667,131.806 381.818 C 133.013 381.969,134.000 382.251,134.000 382.446 C 134.000 382.641,134.439 382.800,134.976 382.800 C 135.513 382.800,136.054 382.963,136.177 383.163 C 136.300 383.362,137.300 383.649,138.400 383.800 C 139.500 383.951,140.492 384.225,140.606 384.409 C 140.720 384.593,141.802 384.868,143.012 385.019 C 144.221 385.170,145.306 385.447,145.422 385.635 C 145.538 385.823,146.525 386.095,147.616 386.240 C 148.707 386.385,149.600 386.660,149.600 386.852 C 149.600 387.043,150.230 387.200,151.000 387.200 C 151.770 387.200,152.400 387.350,152.400 387.533 C 152.400 387.717,152.625 387.894,152.900 387.927 C 154.498 388.118,156.254 388.543,156.610 388.825 C 156.835 389.003,157.960 389.273,159.110 389.426 C 160.259 389.578,161.200 389.839,161.200 390.005 C 161.200 390.172,162.190 390.432,163.400 390.583 C 164.610 390.734,165.600 391.004,165.600 391.183 C 165.600 391.362,166.590 391.632,167.800 391.783 C 169.010 391.934,170.000 392.225,170.000 392.429 C 170.000 392.633,170.529 392.800,171.176 392.800 C 171.823 392.800,172.454 392.963,172.577 393.163 C 172.700 393.362,173.700 393.649,174.800 393.800 C 175.900 393.951,176.890 394.221,177.000 394.400 C 177.110 394.579,178.100 394.849,179.200 395.000 C 180.300 395.151,181.292 395.425,181.406 395.609 C 181.520 395.793,182.600 396.067,183.806 396.218 C 185.013 396.369,186.000 396.631,186.000 396.801 C 186.000 396.970,186.495 397.211,187.100 397.336 C 190.414 398.021,192.623 398.602,192.800 398.836 C 193.702 400.029,202.546 400.181,206.064 399.064 C 207.019 398.761,208.970 398.200,210.400 397.819 C 211.830 397.437,213.299 396.970,213.665 396.781 C 214.031 396.592,215.246 396.315,216.365 396.167 C 217.484 396.018,218.400 395.753,218.400 395.577 C 218.400 395.401,219.390 395.134,220.600 394.983 C 221.810 394.832,222.800 394.569,222.800 394.400 C 222.800 394.231,223.790 393.968,225.000 393.817 C 226.210 393.666,227.200 393.375,227.200 393.171 C 227.200 392.967,227.740 392.800,228.400 392.800 C 229.060 392.800,229.600 392.633,229.600 392.429 C 229.600 392.225,230.590 391.934,231.800 391.783 C 233.010 391.632,234.000 391.369,234.000 391.200 C 234.000 391.031,234.990 390.768,236.200 390.617 C 237.410 390.466,238.400 390.196,238.400 390.017 C 238.400 389.838,239.387 389.569,240.594 389.418 C 241.800 389.267,242.880 388.993,242.994 388.809 C 243.108 388.625,244.100 388.351,245.200 388.200 C 246.300 388.049,247.300 387.762,247.423 387.563 C 247.546 387.363,248.087 387.200,248.624 387.200 C 249.161 387.200,249.600 387.038,249.600 386.839 C 249.600 386.641,250.680 386.353,252.000 386.200 C 253.320 386.047,254.400 385.776,254.400 385.598 C 254.400 385.421,255.300 385.151,256.400 385.000 C 257.499 384.849,258.492 384.575,258.606 384.391 C 258.720 384.207,259.802 383.932,261.012 383.781 C 262.221 383.630,263.309 383.348,263.429 383.153 C 263.549 382.959,264.076 382.800,264.600 382.800 C 265.124 382.800,265.656 382.633,265.783 382.428 C 265.909 382.223,267.000 381.933,268.206 381.782 C 269.413 381.631,270.400 381.360,270.400 381.178 C 270.400 380.997,271.255 380.725,272.300 380.574 C 273.345 380.423,274.380 380.166,274.600 380.004 C 274.820 379.842,275.801 379.587,276.780 379.437 C 277.759 379.287,278.749 379.015,278.980 378.833 C 279.211 378.650,279.940 378.402,280.600 378.282 C 282.672 377.904,283.169 377.765,283.455 377.478 C 283.608 377.325,284.143 377.200,284.643 377.200 C 285.143 377.200,285.651 377.041,285.771 376.847 C 285.891 376.652,286.982 376.370,288.195 376.218 C 289.408 376.066,290.400 375.796,290.400 375.617 C 290.400 375.438,291.387 375.169,292.594 375.018 C 293.800 374.867,294.880 374.593,294.994 374.409 C 295.108 374.225,296.100 373.951,297.200 373.800 C 298.300 373.649,299.300 373.362,299.423 373.163 C 299.546 372.963,300.087 372.800,300.624 372.800 C 301.161 372.800,301.600 372.638,301.600 372.439 C 301.600 372.241,302.680 371.953,304.000 371.800 C 305.320 371.647,306.400 371.372,306.400 371.190 C 306.400 371.007,307.390 370.734,308.600 370.583 C 309.810 370.432,310.800 370.162,310.800 369.983 C 310.800 369.804,311.790 369.534,313.000 369.383 C 314.210 369.232,315.200 368.949,315.200 368.754 C 315.200 368.559,315.470 368.400,315.800 368.400 C 316.240 368.400,316.400 367.942,316.400 366.680 C 316.400 365.734,316.567 364.789,316.772 364.580 C 316.976 364.371,317.245 362.580,317.369 360.600 C 317.493 358.620,317.676 356.190,317.775 355.200 C 317.874 354.210,318.079 351.240,318.231 348.600 C 318.382 345.960,318.643 343.620,318.811 343.400 C 318.979 343.180,319.247 339.982,319.407 336.293 C 319.567 332.605,319.836 329.501,320.006 329.396 C 320.176 329.291,320.444 326.189,320.603 322.503 C 320.762 318.816,321.032 315.620,321.204 315.400 C 321.375 315.180,321.647 311.982,321.807 308.293 C 321.967 304.605,322.256 301.489,322.449 301.370 C 322.642 301.250,322.800 299.644,322.800 297.800 C 322.800 295.956,322.961 294.348,323.157 294.226 C 323.354 294.105,323.644 290.989,323.803 287.303 C 323.962 283.616,324.232 280.420,324.404 280.200 C 324.575 279.980,324.846 276.785,325.006 273.100 C 325.166 269.415,325.435 266.400,325.603 266.400 C 325.771 266.400,326.040 263.338,326.200 259.595 C 326.361 255.853,326.651 252.692,326.846 252.572 C 327.041 252.451,327.200 250.754,327.200 248.800 C 327.200 246.846,327.348 245.156,327.529 245.044 C 327.710 244.932,327.891 243.887,327.931 242.720 C 328.007 240.536,328.580 233.333,329.183 227.000 C 329.371 225.020,329.542 222.005,329.562 220.300 C 329.583 218.595,329.761 217.200,329.957 217.200 C 330.153 217.200,330.445 214.050,330.606 210.200 C 330.766 206.350,331.035 203.200,331.203 203.200 C 331.371 203.200,331.640 200.138,331.800 196.395 C 331.961 192.653,332.251 189.492,332.446 189.372 C 332.641 189.251,332.800 187.554,332.800 185.600 C 332.800 183.646,332.961 181.948,333.157 181.826 C 333.354 181.705,333.646 178.631,333.806 174.996 C 333.966 171.361,334.235 168.302,334.403 168.198 C 334.571 168.095,334.839 164.945,335.000 161.200 C 335.161 157.455,335.431 154.305,335.600 154.200 C 335.769 154.095,336.039 150.945,336.200 147.200 C 336.361 143.455,336.651 140.292,336.846 140.172 C 337.041 140.051,337.200 138.354,337.200 136.400 C 337.200 134.446,337.369 132.743,337.575 132.616 C 337.781 132.488,337.936 132.073,337.919 131.692 C 337.831 129.653,338.546 119.341,338.799 119.000 C 338.962 118.780,339.131 117.520,339.174 116.200 C 339.217 114.880,339.427 111.730,339.641 109.200 C 339.854 106.670,340.217 101.720,340.447 98.200 C 340.677 94.680,341.020 91.440,341.210 91.000 C 341.400 90.560,341.676 87.455,341.823 84.100 L 342.091 78.000 200.003 78.000 L 57.916 78.000 58.204 84.300 M315.593 104.500 C 315.589 105.655,315.405 108.310,315.183 110.400 C 314.962 112.490,314.608 116.180,314.397 118.600 C 313.868 124.661,312.958 134.847,312.200 143.200 C 310.940 157.080,310.376 163.483,309.998 168.200 C 309.787 170.840,309.437 174.710,309.222 176.800 C 309.006 178.890,308.551 183.840,308.211 187.800 C 307.870 191.760,307.413 196.800,307.195 199.000 C 306.977 201.200,306.605 205.250,306.368 208.000 C 305.826 214.312,305.397 219.169,304.601 228.000 C 304.254 231.850,303.715 237.880,303.403 241.400 C 303.091 244.920,302.558 250.860,302.220 254.600 C 301.881 258.340,301.424 263.560,301.203 266.200 C 300.983 268.840,300.627 272.800,300.413 275.000 C 300.199 277.200,299.746 282.150,299.406 286.000 C 299.065 289.850,298.693 293.990,298.578 295.200 C 298.463 296.410,298.098 300.460,297.767 304.200 C 297.435 307.940,296.908 313.880,296.595 317.400 C 296.282 320.920,295.840 326.050,295.611 328.800 C 295.383 331.550,295.026 335.420,294.819 337.400 C 294.611 339.380,294.323 342.620,294.178 344.600 C 293.856 349.016,293.646 349.434,291.504 349.922 C 290.567 350.136,286.830 351.151,283.200 352.177 C 279.570 353.204,274.890 354.509,272.800 355.077 C 270.710 355.645,268.190 356.342,267.200 356.627 C 265.008 357.257,248.314 361.950,246.500 362.445 C 241.235 363.883,238.545 364.632,229.400 367.209 C 224.560 368.572,220.060 369.830,219.400 370.004 C 218.740 370.178,214.249 371.418,209.420 372.760 C 204.591 374.102,200.496 375.200,200.320 375.200 C 200.144 375.200,200.000 367.094,200.000 357.187 C 200.000 343.126,199.890 339.141,199.500 339.020 C 198.766 338.793,194.532 337.610,192.000 336.923 C 190.790 336.595,188.990 336.100,188.000 335.823 C 187.010 335.545,185.030 335.002,183.600 334.615 C 182.170 334.228,180.640 333.767,180.200 333.590 C 179.760 333.413,178.590 333.063,177.600 332.813 C 175.728 332.339,172.271 331.411,170.200 330.825 C 169.540 330.639,167.920 330.180,166.600 329.807 C 165.280 329.433,163.480 328.952,162.600 328.737 C 161.720 328.521,160.723 328.200,160.385 328.022 C 160.046 327.844,158.973 327.564,158.000 327.400 C 157.027 327.236,155.954 326.956,155.615 326.778 C 155.277 326.600,154.190 326.251,153.200 326.003 C 151.272 325.520,150.354 325.270,146.600 324.206 C 145.280 323.831,143.390 323.341,142.400 323.116 C 141.410 322.892,140.420 322.572,140.200 322.406 C 139.980 322.240,139.080 321.980,138.200 321.828 C 137.320 321.676,136.060 321.388,135.400 321.187 C 134.740 320.986,133.300 320.569,132.200 320.260 C 131.100 319.951,129.449 319.472,128.532 319.196 L 126.864 318.693 126.663 316.246 C 126.221 310.872,125.229 300.107,125.035 298.600 C 124.923 297.720,124.545 293.490,124.197 289.200 C 123.848 284.910,123.392 280.050,123.183 278.400 C 122.973 276.750,122.697 273.240,122.568 270.600 C 122.439 267.960,122.176 265.300,121.984 264.689 C 121.226 262.282,120.393 262.382,140.144 262.496 L 158.200 262.600 158.686 268.200 C 158.953 271.280,159.350 275.960,159.567 278.600 C 159.784 281.240,160.149 285.020,160.378 287.000 C 160.606 288.980,160.795 290.715,160.797 290.855 C 160.799 290.995,161.655 291.237,162.700 291.394 C 163.745 291.550,164.780 291.795,165.000 291.937 C 165.220 292.080,166.300 292.402,167.400 292.652 C 169.174 293.055,171.220 293.593,179.600 295.862 C 180.810 296.189,182.610 296.635,183.600 296.852 C 184.590 297.069,185.760 297.401,186.200 297.589 C 186.934 297.903,188.189 298.253,192.000 299.206 C 192.770 299.399,194.480 299.850,195.800 300.209 C 197.120 300.569,198.605 300.959,199.100 301.078 L 200.000 301.293 200.000 273.247 L 200.000 245.200 160.218 245.200 L 120.436 245.200 120.237 243.900 C 120.128 243.185,119.928 241.340,119.792 239.800 C 119.657 238.260,119.399 235.380,119.218 233.400 C 119.037 231.420,118.685 227.280,118.436 224.200 C 118.187 221.120,117.797 217.160,117.568 215.400 C 117.340 213.640,116.992 209.950,116.796 207.200 C 116.599 204.450,116.164 199.230,115.829 195.600 C 115.221 189.025,114.867 185.097,114.024 175.600 C 113.779 172.850,113.394 168.980,113.166 167.000 C 112.938 165.020,112.591 161.240,112.394 158.600 C 111.488 146.481,110.869 139.743,110.601 139.095 C 109.790 137.128,108.071 137.200,155.649 137.200 L 200.000 137.200 200.000 119.800 L 200.000 102.400 257.800 102.400 L 315.600 102.400 315.593 104.500 M150.637 177.900 C 150.764 180.265,150.965 182.470,151.084 182.800 C 151.287 183.358,151.679 187.832,152.866 203.100 L 153.341 209.200 176.670 209.200 L 200.000 209.200 200.000 191.400 L 200.000 173.600 175.204 173.600 L 150.408 173.600 150.637 177.900 " stroke="none" fill="#e44c24" fill-rule="evenodd"></path><path id="path2" d="M111.392 138.413 C 111.251 138.642,111.334 140.847,111.577 143.314 C 111.820 145.781,112.197 149.600,112.414 151.800 C 112.631 154.000,112.988 157.960,113.206 160.600 C 113.425 163.240,113.873 168.280,114.201 171.800 C 114.530 175.320,114.973 180.360,115.185 183.000 C 115.398 185.640,115.756 189.600,115.982 191.800 C 116.207 194.000,116.670 199.040,117.010 203.000 C 117.350 206.960,117.803 211.910,118.018 214.000 C 118.232 216.090,118.593 219.960,118.819 222.600 C 119.976 236.089,120.403 240.787,120.645 242.700 L 120.911 244.800 182.032 244.800 C 217.849 244.800,243.245 244.949,243.375 245.160 C 243.598 245.521,243.371 248.688,242.210 261.400 C 241.868 265.140,241.325 271.170,241.004 274.800 C 239.859 287.721,239.550 290.983,239.464 291.069 C 239.417 291.117,235.693 292.155,231.189 293.375 C 226.685 294.596,222.370 295.771,221.600 295.987 C 220.830 296.202,218.130 296.928,215.600 297.599 C 210.293 299.007,206.950 299.909,204.400 300.622 C 200.099 301.825,199.912 301.837,197.021 301.076 C 191.414 299.600,189.766 299.161,187.800 298.618 C 186.035 298.131,183.435 297.431,175.700 295.362 C 170.886 294.074,169.231 293.639,166.000 292.813 C 159.546 291.162,160.133 291.615,159.878 288.086 C 159.756 286.389,159.371 281.850,159.023 278.000 C 158.675 274.150,158.278 269.470,158.140 267.600 C 157.748 262.255,159.808 262.800,140.010 262.800 C 130.310 262.800,122.751 262.956,122.625 263.159 C 122.418 263.495,122.616 266.168,123.610 276.400 C 123.834 278.710,124.201 282.760,124.426 285.400 C 124.650 288.040,125.090 293.080,125.403 296.600 C 125.716 300.120,126.156 305.160,126.381 307.800 C 127.362 319.324,127.031 318.353,130.248 319.164 C 132.616 319.760,133.902 320.114,143.400 322.782 C 155.379 326.148,156.421 326.439,157.800 326.803 C 158.745 327.053,169.629 330.104,177.800 332.409 C 178.936 332.730,180.902 333.268,185.700 334.570 C 186.855 334.884,190.469 335.889,193.732 336.805 L 199.663 338.470 202.132 337.878 C 203.489 337.552,205.680 336.977,207.000 336.600 C 210.951 335.471,211.702 335.262,214.000 334.651 C 215.210 334.330,221.780 332.507,228.600 330.601 C 242.526 326.709,244.884 326.053,246.600 325.591 C 247.260 325.414,253.288 323.749,259.996 321.891 L 272.193 318.513 272.500 316.756 C 272.669 315.790,273.085 311.760,273.424 307.800 C 274.235 298.338,275.116 288.367,275.582 283.400 C 275.788 281.200,276.232 276.250,276.570 272.400 C 276.907 268.550,277.456 262.430,277.791 258.800 C 278.125 255.170,278.577 250.040,278.796 247.400 C 279.014 244.760,279.367 240.890,279.581 238.800 C 279.795 236.710,280.253 231.670,280.600 227.600 C 280.947 223.530,281.404 218.549,281.615 216.532 C 281.827 214.514,282.000 212.129,282.000 211.232 L 282.000 209.600 217.627 209.600 C 156.545 209.600,153.242 209.564,153.031 208.896 C 152.908 208.509,152.635 206.124,152.425 203.596 C 151.595 193.627,151.161 188.853,150.779 185.500 C 150.560 183.575,150.268 180.020,150.130 177.600 L 149.878 173.200 217.551 173.200 C 271.347 173.200,285.255 173.097,285.369 172.700 C 285.526 172.159,286.230 165.129,286.803 158.400 C 287.000 156.090,287.439 151.140,287.778 147.400 C 288.118 143.660,288.442 140.060,288.498 139.400 L 288.600 138.200 200.124 138.099 C 139.302 138.030,111.568 138.128,111.392 138.413 " stroke="none" fill="#f3f2f2" fill-rule="evenodd"></path><path id="path3" d="M200.000 119.800 L 200.000 137.200 244.400 137.200 L 288.800 137.200 288.762 139.900 C 288.742 141.385,288.571 144.220,288.384 146.200 C 287.661 153.822,286.778 163.596,286.402 168.131 C 286.186 170.733,285.906 173.028,285.781 173.231 C 285.644 173.453,268.468 173.600,242.776 173.600 L 200.000 173.600 200.000 191.398 L 200.000 209.196 241.300 209.298 L 282.600 209.400 282.530 210.600 C 282.491 211.260,282.163 215.130,281.801 219.200 C 281.439 223.270,281.064 227.500,280.968 228.600 C 280.872 229.700,280.530 233.480,280.209 237.000 C 279.518 244.583,279.382 246.092,278.589 255.000 C 278.256 258.740,277.715 264.770,277.387 268.400 C 277.060 272.030,276.623 277.250,276.417 280.000 C 276.211 282.750,275.857 286.620,275.630 288.600 C 275.403 290.580,274.938 295.710,274.595 300.000 C 274.252 304.290,273.798 308.801,273.586 310.024 C 273.374 311.247,273.200 313.160,273.200 314.274 C 273.200 318.792,273.386 318.601,267.400 320.233 C 266.080 320.593,264.723 321.025,264.385 321.194 C 264.046 321.363,262.966 321.634,261.985 321.796 C 261.003 321.958,260.020 322.230,259.800 322.400 C 259.580 322.570,258.597 322.842,257.615 323.004 C 256.634 323.166,255.554 323.440,255.215 323.612 C 254.877 323.784,253.430 324.237,252.000 324.619 C 250.570 325.000,248.629 325.557,247.686 325.856 C 246.743 326.155,245.539 326.400,245.010 326.400 C 244.480 326.400,243.949 326.560,243.828 326.755 C 243.707 326.950,242.932 327.231,242.104 327.379 C 241.277 327.527,240.060 327.809,239.400 328.006 C 237.760 328.495,234.715 329.343,231.600 330.178 C 230.170 330.562,228.723 331.016,228.385 331.188 C 228.046 331.360,226.966 331.634,225.985 331.796 C 225.003 331.958,224.020 332.230,223.800 332.400 C 223.580 332.570,222.597 332.842,221.615 333.004 C 220.634 333.166,219.554 333.437,219.215 333.606 C 218.665 333.880,216.653 334.467,212.400 335.592 C 209.651 336.319,206.171 337.282,204.400 337.806 C 203.410 338.099,201.970 338.454,201.200 338.595 L 199.800 338.851 199.908 357.026 C 199.967 367.022,200.156 375.200,200.328 375.200 C 200.499 375.200,204.591 374.102,209.420 372.760 C 214.249 371.418,218.740 370.178,219.400 370.004 C 220.060 369.830,224.560 368.572,229.400 367.209 C 238.545 364.632,241.235 363.883,246.500 362.445 C 248.314 361.950,265.008 357.257,267.200 356.627 C 268.190 356.342,270.710 355.645,272.800 355.077 C 274.890 354.509,279.570 353.204,283.200 352.177 C 286.830 351.151,290.567 350.136,291.504 349.922 C 293.646 349.434,293.856 349.016,294.178 344.600 C 294.323 342.620,294.611 339.380,294.819 337.400 C 295.026 335.420,295.383 331.550,295.611 328.800 C 295.840 326.050,296.282 320.920,296.595 317.400 C 296.908 313.880,297.435 307.940,297.767 304.200 C 298.098 300.460,298.463 296.410,298.578 295.200 C 298.693 293.990,299.065 289.850,299.406 286.000 C 299.746 282.150,300.199 277.200,300.413 275.000 C 300.627 272.800,300.983 268.840,301.203 266.200 C 301.424 263.560,301.881 258.340,302.220 254.600 C 302.558 250.860,303.091 244.920,303.403 241.400 C 303.715 237.880,304.254 231.850,304.601 228.000 C 305.397 219.169,305.826 214.312,306.368 208.000 C 306.605 205.250,306.977 201.200,307.195 199.000 C 307.413 196.800,307.870 191.760,308.211 187.800 C 308.551 183.840,309.006 178.890,309.222 176.800 C 309.437 174.710,309.787 170.840,309.998 168.200 C 310.376 163.483,310.940 157.080,312.200 143.200 C 312.958 134.847,313.868 124.661,314.397 118.600 C 314.608 116.180,314.962 112.490,315.183 110.400 C 315.405 108.310,315.589 105.655,315.593 104.500 L 315.600 102.400 257.800 102.400 L 200.000 102.400 200.000 119.800 M62.093 129.200 C 62.093 129.970,62.175 130.285,62.276 129.900 C 62.376 129.515,62.376 128.885,62.276 128.500 C 62.175 128.115,62.093 128.430,62.093 129.200 M133.100 137.500 C 145.255 137.559,165.145 137.559,177.300 137.500 C 189.455 137.441,179.510 137.393,155.200 137.393 C 130.890 137.393,120.945 137.441,133.100 137.500 M162.500 173.500 C 169.265 173.561,180.335 173.561,187.100 173.500 C 193.865 173.438,188.330 173.388,174.800 173.388 C 161.270 173.388,155.735 173.438,162.500 173.500 M114.093 177.200 C 114.093 177.970,114.175 178.285,114.276 177.900 C 114.376 177.515,114.376 176.885,114.276 176.500 C 114.175 176.115,114.093 176.430,114.093 177.200 M118.493 226.800 C 118.493 227.570,118.575 227.885,118.676 227.500 C 118.776 227.115,118.776 226.485,118.676 226.100 C 118.575 225.715,118.493 226.030,118.493 226.800 M200.000 273.247 L 200.000 301.293 200.900 301.078 C 202.072 300.797,206.215 299.677,208.000 299.157 C 208.770 298.933,210.210 298.570,211.200 298.351 C 212.190 298.132,213.360 297.794,213.800 297.600 C 214.240 297.406,215.410 297.069,216.400 296.852 C 217.390 296.635,219.190 296.189,220.400 295.862 C 225.406 294.507,230.310 293.205,232.000 292.782 C 232.990 292.534,234.160 292.175,234.600 291.984 C 235.040 291.792,236.210 291.487,237.200 291.307 L 239.000 290.978 239.288 288.389 C 239.766 284.085,241.467 265.014,242.354 254.000 C 242.575 251.250,242.848 248.145,242.959 247.100 L 243.162 245.200 221.581 245.200 L 200.000 245.200 200.000 273.247 M160.093 286.400 C 160.093 287.170,160.175 287.485,160.276 287.100 C 160.376 286.715,160.376 286.085,160.276 285.700 C 160.175 285.315,160.093 285.630,160.093 286.400 M124.093 288.400 C 124.093 289.170,124.175 289.485,124.276 289.100 C 124.376 288.715,124.376 288.085,124.276 287.700 C 124.175 287.315,124.093 287.630,124.093 288.400 " stroke="none" fill="#f36324" fill-rule="evenodd"></path><path id="path4" d="M155.100 137.500 L 110.800 137.603 110.847 139.102 C 110.893 140.554,110.903 140.563,111.151 139.400 L 111.408 138.200 200.104 138.200 C 270.794 138.200,288.800 138.098,288.800 137.700 C 288.800 137.183,289.976 137.185,155.100 137.500 M288.249 142.300 C 287.653 149.383,287.590 150.990,287.938 150.200 C 288.303 149.369,288.995 139.200,288.686 139.200 C 288.589 139.200,288.393 140.595,288.249 142.300 M111.460 146.030 C 111.577 148.797,111.825 151.677,112.011 152.430 C 112.412 154.051,112.074 147.059,111.575 143.400 C 111.349 141.744,111.313 142.560,111.460 146.030 M287.047 155.100 C 286.532 161.045,286.416 164.185,286.749 163.181 C 287.129 162.036,287.778 152.400,287.476 152.400 C 287.369 152.400,287.176 153.615,287.047 155.100 M112.498 156.600 C 112.488 158.140,112.616 160.390,112.783 161.600 L 113.087 163.800 113.100 161.200 C 113.107 159.770,112.979 157.520,112.815 156.200 L 112.518 153.800 112.498 156.600 M113.484 168.400 C 113.604 170.930,113.851 173.720,114.034 174.600 C 114.461 176.649,114.041 168.179,113.590 165.629 C 113.386 164.477,113.347 165.504,113.484 168.400 M285.869 168.600 C 285.691 170.580,285.473 172.424,285.386 172.698 C 285.260 173.091,276.095 173.219,242.113 173.301 L 199.000 173.405 242.395 173.403 L 285.789 173.400 286.109 171.200 C 286.285 169.990,286.376 168.100,286.311 167.000 C 286.213 165.349,286.136 165.628,285.869 168.600 M150.156 178.400 C 150.301 180.490,150.585 183.640,150.786 185.400 C 150.986 187.160,151.448 192.200,151.812 196.600 C 152.623 206.400,153.260 211.000,152.976 205.000 C 152.872 202.800,152.608 199.470,152.390 197.600 C 152.018 194.414,151.688 190.713,150.786 179.641 C 150.582 177.133,150.297 174.973,150.153 174.841 C 150.009 174.708,150.010 176.310,150.156 178.400 M114.670 181.400 C 114.792 184.040,115.041 186.920,115.223 187.800 C 115.647 189.858,115.216 180.878,114.771 178.400 C 114.573 177.293,114.534 178.447,114.670 181.400 M115.871 194.882 C 115.993 197.457,116.240 200.157,116.419 200.882 C 116.823 202.520,116.417 194.524,115.968 192.000 C 115.773 190.903,115.735 192.028,115.871 194.882 M116.941 207.200 C 117.080 209.510,117.372 213.020,117.591 215.000 C 117.809 216.980,118.265 221.750,118.604 225.600 C 119.545 236.287,119.723 237.860,119.902 237.079 C 119.992 236.683,119.858 234.163,119.603 231.479 C 118.912 224.190,118.077 214.873,117.571 208.800 C 117.036 202.372,116.582 201.218,116.941 207.200 M217.500 209.500 L 282.000 209.602 282.041 211.501 L 282.083 213.400 282.482 211.895 C 282.702 211.067,282.779 210.122,282.653 209.795 C 282.452 209.271,274.689 209.212,217.713 209.299 L 153.000 209.398 217.500 209.500 M281.446 217.700 C 280.880 224.955,280.808 227.008,281.158 225.947 C 281.541 224.787,282.205 214.400,281.896 214.400 C 281.790 214.400,281.587 215.885,281.446 217.700 M280.275 231.600 C 280.099 233.910,279.792 237.150,279.594 238.800 C 279.057 243.261,278.770 249.633,279.170 248.200 C 279.354 247.540,279.527 245.988,279.553 244.752 C 279.579 243.515,279.880 239.960,280.222 236.853 C 280.564 233.745,280.788 230.347,280.719 229.301 C 280.634 227.995,280.495 228.715,280.275 231.600 M120.062 240.600 C 120.033 241.480,120.120 242.875,120.257 243.700 L 120.505 245.200 181.896 245.200 L 243.287 245.200 243.073 246.100 C 242.955 246.595,242.767 249.250,242.653 252.000 C 242.506 255.591,242.542 256.324,242.783 254.600 C 242.967 253.280,243.182 250.580,243.259 248.600 L 243.400 245.000 182.155 244.899 L 120.911 244.797 120.513 241.899 C 120.218 239.743,120.102 239.410,120.062 240.600 M278.246 253.500 C 277.701 259.895,277.599 262.612,277.942 261.593 C 278.306 260.512,278.978 250.400,278.686 250.400 C 278.589 250.400,278.391 251.795,278.246 253.500 M241.859 259.071 C 241.548 260.688,241.071 270.239,241.314 270.000 C 241.591 269.727,242.501 258.368,242.265 258.132 C 242.161 258.028,241.978 258.451,241.859 259.071 M122.267 262.667 C 122.120 262.813,122.018 263.398,122.040 263.967 L 122.080 265.000 122.358 264.000 L 122.636 263.000 139.818 262.895 C 159.401 262.775,157.971 262.502,158.040 266.376 C 158.061 267.599,158.229 269.590,158.412 270.800 C 158.652 272.381,158.690 271.707,158.549 268.400 C 158.442 265.870,158.262 263.485,158.150 263.100 C 157.940 262.380,122.975 261.958,122.267 262.667 M277.056 266.500 C 276.514 273.115,276.417 275.783,276.754 274.764 C 277.135 273.613,277.793 263.600,277.487 263.600 C 277.381 263.600,277.187 264.905,277.056 266.500 M122.498 267.800 C 122.488 269.340,122.616 271.590,122.783 272.800 L 123.087 275.000 123.100 272.400 C 123.107 270.970,122.979 268.720,122.815 267.400 L 122.518 265.000 122.498 267.800 M240.643 272.859 C 240.321 274.921,239.898 283.426,240.128 283.200 C 240.417 282.916,241.302 271.968,241.055 271.722 C 240.943 271.610,240.758 272.122,240.643 272.859 M159.068 278.200 C 159.197 280.620,159.446 283.410,159.622 284.400 C 159.817 285.501,159.858 284.336,159.726 281.400 C 159.608 278.760,159.359 275.970,159.173 275.200 C 158.963 274.330,158.923 275.466,159.068 278.200 M123.487 279.600 C 123.605 282.130,123.852 284.920,124.036 285.800 C 124.460 287.825,124.088 280.343,123.608 277.200 C 123.371 275.646,123.335 276.351,123.487 279.600 M275.983 278.100 C 275.973 278.595,275.803 280.800,275.605 283.000 C 275.407 285.200,274.970 290.150,274.633 294.000 C 274.297 297.850,273.821 303.113,273.576 305.695 C 273.331 308.277,273.212 310.617,273.313 310.895 C 273.561 311.584,273.836 309.195,274.591 299.800 C 274.944 295.400,275.403 290.450,275.610 288.800 C 276.155 284.451,276.561 277.200,276.259 277.200 C 276.117 277.200,275.992 277.605,275.983 278.100 M239.443 286.463 C 239.020 289.839,238.964 291.200,239.246 291.200 C 239.590 291.200,240.191 285.257,239.879 284.945 C 239.758 284.825,239.562 285.508,239.443 286.463 M160.032 289.269 C 160.002 291.040,160.068 291.159,161.300 291.532 C 164.540 292.513,168.031 293.302,168.234 293.099 C 168.441 292.892,167.545 292.631,162.703 291.490 C 160.956 291.079,160.788 290.932,160.571 289.622 C 160.194 287.355,160.065 287.270,160.032 289.269 M124.675 292.800 C 124.797 295.330,125.042 298.120,125.221 299.000 C 125.638 301.053,125.210 292.474,124.772 290.000 C 124.578 288.902,124.540 289.995,124.675 292.800 M236.000 291.488 C 235.450 291.587,234.820 291.851,234.600 292.076 C 234.173 292.512,236.302 292.178,237.800 291.573 L 238.600 291.251 237.800 291.280 C 237.360 291.296,236.550 291.390,236.000 291.488 M231.200 292.888 C 230.430 293.116,229.983 293.371,230.206 293.454 C 230.429 293.536,231.419 293.351,232.406 293.041 C 233.393 292.732,233.840 292.478,233.400 292.476 C 232.960 292.474,231.970 292.659,231.200 292.888 M169.200 293.555 C 169.530 293.760,170.520 294.044,171.400 294.186 C 172.452 294.357,172.795 294.319,172.400 294.074 C 172.070 293.870,171.080 293.586,170.200 293.443 C 169.148 293.272,168.805 293.311,169.200 293.555 M226.400 294.185 C 225.410 294.476,224.084 294.832,223.453 294.976 C 222.822 295.121,222.409 295.342,222.535 295.468 C 222.747 295.680,229.193 294.113,229.567 293.758 C 229.908 293.435,228.142 293.673,226.400 294.185 M173.600 294.740 C 173.930 294.937,174.920 295.214,175.800 295.357 C 176.806 295.520,177.177 295.484,176.800 295.260 C 176.470 295.063,175.480 294.786,174.600 294.643 C 173.594 294.480,173.223 294.516,173.600 294.740 M178.000 295.926 C 178.330 296.130,179.320 296.414,180.200 296.557 C 181.252 296.728,181.595 296.689,181.200 296.445 C 180.870 296.240,179.880 295.956,179.000 295.814 C 177.948 295.643,177.605 295.681,178.000 295.926 M219.680 295.995 C 217.749 296.452,217.527 296.920,219.400 296.584 C 221.132 296.274,222.726 295.599,221.600 295.653 C 221.270 295.669,220.406 295.823,219.680 295.995 M182.800 297.188 C 183.350 297.367,184.880 297.812,186.200 298.177 C 187.520 298.542,189.476 299.101,190.546 299.420 C 192.498 300.002,193.912 300.179,193.527 299.794 C 193.414 299.681,192.349 299.329,191.161 299.013 C 189.972 298.697,187.650 298.074,186.000 297.629 C 183.105 296.847,180.757 296.524,182.800 297.188 M215.400 297.067 C 214.960 297.163,214.240 297.401,213.800 297.597 C 213.360 297.793,212.190 298.132,211.200 298.351 C 207.894 299.083,206.339 299.528,206.068 299.820 C 205.651 300.270,217.097 297.436,217.559 296.975 C 217.766 296.768,216.532 296.821,215.400 297.067 M194.400 300.326 C 194.730 300.530,195.720 300.814,196.600 300.957 C 197.652 301.128,197.995 301.089,197.600 300.845 C 197.270 300.640,196.280 300.356,195.400 300.214 C 194.348 300.043,194.005 300.081,194.400 300.326 M203.280 300.395 C 201.351 300.851,201.124 301.356,203.000 301.017 C 204.724 300.705,206.336 299.999,205.200 300.053 C 204.870 300.069,204.006 300.223,203.280 300.395 M198.400 301.353 C 198.400 301.710,199.875 301.852,200.606 301.566 C 201.211 301.330,201.043 301.250,199.900 301.228 C 199.075 301.213,198.400 301.269,198.400 301.353 M125.866 306.256 C 125.986 308.927,126.232 311.717,126.413 312.456 C 126.811 314.073,126.427 306.334,125.965 303.400 C 125.771 302.169,125.733 303.268,125.866 306.256 M272.587 315.900 C 272.360 317.495,272.304 318.800,272.462 318.800 C 272.846 318.800,273.303 315.658,273.134 314.176 C 273.048 313.422,272.852 314.041,272.587 315.900 M126.860 316.495 C 126.793 318.607,127.519 319.175,131.000 319.729 C 132.776 320.012,132.113 319.654,129.200 318.755 C 127.479 318.224,127.389 318.121,127.160 316.400 L 126.920 314.600 126.860 316.495 M265.971 320.175 C 260.446 321.740,259.603 322.072,261.985 321.746 C 262.966 321.611,264.046 321.360,264.385 321.188 C 264.723 321.016,266.170 320.570,267.600 320.196 C 270.565 319.422,272.103 318.851,271.200 318.860 C 270.870 318.863,268.517 319.455,265.971 320.175 M133.400 320.390 C 133.840 320.575,135.280 321.023,136.600 321.386 C 137.920 321.748,139.942 322.321,141.094 322.658 C 142.246 322.995,143.390 323.203,143.637 323.121 C 143.883 323.039,141.681 322.301,138.743 321.481 C 133.668 320.066,131.642 319.652,133.400 320.390 M257.400 322.615 L 255.800 323.168 257.600 322.943 C 258.590 322.819,259.571 322.556,259.780 322.359 C 260.322 321.847,259.303 321.957,257.400 322.615 M145.000 323.599 C 145.440 323.789,146.880 324.246,148.200 324.616 C 149.520 324.985,151.410 325.517,152.400 325.796 C 153.390 326.076,155.370 326.621,156.800 327.009 C 158.230 327.396,160.171 327.957,161.114 328.256 C 162.057 328.555,163.137 328.782,163.514 328.760 C 164.424 328.708,160.569 327.498,153.400 325.586 C 152.740 325.410,150.580 324.804,148.600 324.238 C 145.018 323.215,143.474 322.941,145.000 323.599 M251.200 324.269 C 249.330 324.818,246.990 325.466,246.000 325.708 C 244.947 325.966,244.497 326.214,244.916 326.307 C 245.575 326.452,247.386 326.004,251.971 324.558 C 252.945 324.251,254.060 324.000,254.448 324.000 C 254.835 324.000,255.264 323.820,255.400 323.600 C 255.754 323.027,255.036 323.142,251.200 324.269 M241.400 327.008 C 240.300 327.313,238.590 327.831,237.600 328.160 L 235.800 328.757 237.400 328.526 C 238.280 328.399,239.270 328.159,239.600 327.994 C 239.930 327.828,240.964 327.566,241.898 327.412 C 242.832 327.257,243.697 326.966,243.822 326.765 C 244.108 326.302,243.849 326.328,241.400 327.008 M164.471 329.004 C 164.584 329.117,166.999 329.842,169.838 330.616 C 172.677 331.389,175.955 332.307,177.122 332.655 C 178.290 333.004,179.346 333.187,179.470 333.064 C 179.593 332.940,179.178 332.726,178.547 332.587 C 177.916 332.448,176.950 332.178,176.400 331.987 C 173.116 330.845,164.043 328.577,164.471 329.004 M229.971 330.175 C 224.446 331.740,223.603 332.072,225.985 331.746 C 226.966 331.611,228.046 331.360,228.385 331.188 C 228.723 331.016,230.170 330.570,231.600 330.196 C 234.565 329.422,236.103 328.851,235.200 328.860 C 234.870 328.863,232.517 329.455,229.971 330.175 M221.400 332.615 L 219.800 333.168 221.600 332.943 C 222.590 332.819,223.571 332.556,223.780 332.359 C 224.322 331.847,223.303 331.957,221.400 332.615 M180.400 333.526 C 180.730 333.730,181.720 334.014,182.600 334.157 C 183.652 334.328,183.995 334.289,183.600 334.045 C 183.270 333.840,182.280 333.556,181.400 333.414 C 180.348 333.243,180.005 333.281,180.400 333.526 M216.600 333.863 C 214.410 334.535,212.370 335.112,208.400 336.182 C 205.137 337.061,203.614 337.702,205.600 337.361 C 206.370 337.229,207.900 336.858,209.000 336.537 C 210.100 336.215,211.720 335.762,212.600 335.529 C 213.480 335.297,214.997 334.857,215.971 334.553 C 216.945 334.249,218.060 334.000,218.448 334.000 C 218.835 334.000,219.264 333.820,219.400 333.600 C 219.733 333.061,218.986 333.131,216.600 333.863 M185.000 334.767 C 185.440 334.960,186.970 335.433,188.400 335.818 C 189.830 336.203,191.846 336.780,192.881 337.099 C 193.915 337.418,194.982 337.606,195.252 337.516 C 195.522 337.426,194.136 336.929,192.172 336.413 C 190.207 335.896,188.330 335.345,188.000 335.189 C 187.670 335.033,186.680 334.795,185.800 334.660 C 184.724 334.496,184.462 334.530,185.000 334.767 M196.600 338.077 C 197.610 338.724,202.331 338.718,203.400 338.069 C 204.075 337.659,203.950 337.630,202.600 337.884 C 200.582 338.263,198.983 338.259,197.200 337.870 C 195.970 337.602,195.897 337.628,196.600 338.077 " stroke="none" fill="#f0875d" fill-rule="evenodd"></path></g></svg>